<svg width="147" height="150" xmlns="http://www.w3.org/2000/svg">
 <defs>
  <filter height="200%" width="200%" y="-50%" x="-50%" id="svg_20_blur">
   <feGaussianBlur stdDeviation="0" in="SourceGraphic"/>
  </filter>
 </defs>
 <g>
  <title>background</title>
  <rect fill="none" id="canvas_background" height="152" width="149" y="-1" x="-1"/>
 </g>
 <g>
  <title>Layer 1</title>
  <ellipse filter="url(#svg_20_blur)" stroke="null" opacity="0.67" ry="70.089284" rx="68.481735" id="svg_20" cy="73.947408" cx="73.625902" stroke-opacity="null" stroke-width="NaN" fill="#33cece"/>
  <path stroke="null" id="svg_2" d="m115.22185,49.334136c-0.47089,-0.68402 -1.22859,-1.10682 -2.05164,-1.14246l-51.02642,-2.22932c-1.46404,-0.06493 -2.68748,1.0807 -2.75007,2.55771c-0.06222,1.47645 1.06623,2.72396 2.52327,2.7874l47.57185,2.07856l-9.35362,29.58012l-41.62475,0l-7.52012,-41.50236c-0.16531,-0.9096 -0.78145,-1.66845 -1.63119,-2.00635l-12.31669,-4.9044c-1.35745,-0.53867 -2.88923,0.13714 -3.42235,1.51134c-0.53219,1.37495 0.13438,2.92846 1.4911,3.46881l10.9515,4.36069l7.65285,42.23079c0.23066,1.26952 1.32229,2.19163 2.59636,2.19163l1.26946,0l-2.89882,8.16124c-0.24262,0.68365 -0.14266,1.44287 0.27024,2.03677c0.41236,0.59408 1.08299,0.94748 1.7989,0.94748l2.03323,0c-1.25988,1.42122 -2.03323,3.29248 -2.03323,5.35033c0,4.42543 3.55269,8.02541 7.91793,8.02541s7.91793,-3.59998 7.91793,-8.02541c0,-2.05766 -0.77334,-3.92911 -2.03305,-5.35033l17.26309,0c-1.26044,1.42122 -2.0336,3.29248 -2.0336,5.35033c0,4.42543 3.55176,8.02541 7.91793,8.02541c4.36635,0 7.91793,-3.59998 7.91793,-8.02541c0,-2.05766 -0.77316,-3.92911 -2.03268,-5.35033l2.47265,0c1.21497,0 2.19947,-0.99805 2.19947,-2.22914c0,-1.23146 -0.98468,-2.22932 -2.19947,-2.22932l-42.17866,0l2.37509,-6.68778l39.80339,0c1.14778,0 2.16338,-0.75156 2.51296,-1.85839l10.99715,-34.77708c0.25257,-0.79373 0.12297,-1.66154 -0.34792,-2.34594zm-50.55202,59.04568c-1.94083,0 -3.51919,-1.5996 -3.51919,-3.56677s1.57836,-3.56695 3.51919,-3.56695s3.519,1.59978 3.519,3.56695s-1.57818,3.56677 -3.519,3.56677zm29.03211,0c-1.94082,0 -3.519,-1.5996 -3.519,-3.56677s1.57818,-3.56695 3.519,-3.56695s3.519,1.59978 3.519,3.56695s-1.57817,3.56677 -3.519,3.56677z"/>
 </g>
</svg>